#format: frame checksums
#version: 1
#hash: MD5
#tb 0: 1/192000
#stream#, dts,        pts, duration,     size, hash
0,          0,          0,     2048,    24576, 91ff0dac5df86e798bfef5e573536b08
0,        512,        512,     2048,    24576, 91ff0dac5df86e798bfef5e573536b08
0,       1024,       1024,     2048,    24576, 97e888b4de888608d08d193aecd2bd6b
0,       1536,       1536,     2048,    24576, 96d20b0b657183ee88a5ec7d919d5313
0,       2048,       2048,     2048,    24576, d6a98e7cea8e9b397e89f178aa719b19
0,       2560,       2560,     2048,    24576, fb3432fe46696579220baa1c49e7dcd5
